<?xml version="1.0" encoding="UTF-8"?>
<!DOCTYPE svg PUBLIC "-//W3C//DTD SVG 1.1//EN" "http://www.w3.org/Graphics/SVG/1.1/DTD/svg11.dtd">
<svg xmlns="http://www.w3.org/2000/svg" version="1.1" width="8334px" height="8334px" style="shape-rendering:geometricPrecision; text-rendering:geometricPrecision; image-rendering:optimizeQuality; fill-rule:evenodd; clip-rule:evenodd" xmlns:xlink="http://www.w3.org/1999/xlink">
<g><path style="opacity:0.186" fill="#fefefe" d="M -0.5,-0.5 C 2777.5,-0.5 5555.5,-0.5 8333.5,-0.5C 8333.5,2777.5 8333.5,5555.5 8333.5,8333.5C 5555.5,8333.5 2777.5,8333.5 -0.5,8333.5C -0.5,5555.5 -0.5,2777.5 -0.5,-0.5 Z"/></g>
<g><path style="opacity:1" fill="#221e1e" d="M 5323.5,2656.5 C 5376.76,2654.37 5415.26,2677.04 5439,2724.5C 5452.12,2753.43 5455.12,2783.43 5448,2814.5C 5439.77,2862.8 5417.6,2903.3 5381.5,2936C 5349.39,2963.28 5312.39,2973.95 5270.5,2968C 5236.61,2959.44 5212.45,2939.28 5198,2907.5C 5178.75,2860.17 5178.75,2812.84 5198,2765.5C 5214.07,2724.17 5241.24,2692.34 5279.5,2670C 5293.63,2663.31 5308.29,2658.81 5323.5,2656.5 Z"/></g>
<g><path style="opacity:1" fill="#221e1e" d="M 6877.5,3787.5 C 6876.36,3790.3 6876.2,3793.3 6877,3796.5C 6877.51,3795.47 6878.01,3794.47 6878.5,3793.5C 6905.95,3743.61 6932.11,3692.95 6957,3641.5C 7034.79,3478.98 7108.62,3314.65 7178.5,3148.5C 7206.69,3159.2 7229.85,3176.53 7248,3200.5C 7258.14,3214.92 7263.47,3230.92 7264,3248.5C 7259.48,3266.72 7254.15,3284.72 7248,3302.5C 7178.18,3484.02 7093.85,3658.35 6995,3825.5C 6960.27,3882.97 6921.6,3937.64 6879,3989.5C 6873.03,3996.47 6866.7,4003.14 6860,4009.5C 6856.62,4069.64 6851.62,4129.64 6845,4189.5C 6829.01,4313.15 6789.34,4428.48 6726,4535.5C 6706,4568.52 6681.84,4598.35 6653.5,4625C 6639.79,4637.36 6624.45,4647.36 6607.5,4655C 6601.92,4656.92 6596.25,4658.58 6590.5,4660C 6535.68,4666.24 6486.01,4653.24 6441.5,4621C 6363.51,4561.17 6327.01,4482 6332,4383.5C 6337.39,4332.99 6354.06,4286.65 6382,4244.5C 6404.08,4211.07 6429.91,4180.57 6459.5,4153C 6492.05,4123.44 6526.05,4095.77 6561.5,4070C 6586.15,4052.34 6611.15,4035.17 6636.5,4018.5C 6638.22,4009.26 6639.38,3999.92 6640,3990.5C 6647.06,3902.11 6654.39,3813.78 6662,3725.5C 6635.75,3793.93 6605.08,3860.27 6570,3924.5C 6552.02,3956.49 6530.18,3985.66 6504.5,4012C 6487.53,4028.82 6467.53,4040.49 6444.5,4047C 6402.54,4055.9 6367.37,4044.4 6339,4012.5C 6322.95,3993.07 6309.95,3971.74 6300,3948.5C 6284.76,3909.98 6273.43,3870.31 6266,3829.5C 6228.66,3901.19 6186.99,3970.19 6141,4036.5C 6118.89,4068.14 6093.39,4096.97 6064.5,4123C 6026.5,4153.11 5990,4151.28 5955,4117.5C 5935.78,4094.74 5921.45,4069.08 5912,4040.5C 5889.49,3969.91 5880.15,3897.58 5884,3823.5C 5891.99,3635.55 5912.99,3449.22 5947,3264.5C 5907.56,3300.59 5873.23,3340.93 5844,3385.5C 5776.37,3487.6 5727.37,3598.27 5697,3717.5C 5685.2,3766.48 5680.2,3816.15 5682,3866.5C 5686.68,3926.56 5699.01,3984.9 5719,4041.5C 5722.9,4051.51 5727.4,4061.35 5732.5,4071C 5695.96,4119.79 5647.63,4150.12 5587.5,4162C 5539.48,4175.54 5499.98,4163.04 5469,4124.5C 5449.41,4095.64 5436.08,4063.97 5429,4029.5C 5423.81,4005.04 5419.97,3980.37 5417.5,3955.5C 5378.98,4018.51 5337.15,4079.17 5292,4137.5C 5271.28,4163.22 5248.78,4187.39 5224.5,4210C 5170.45,4255.52 5123.95,4248.69 5085,4189.5C 5067.63,4158.72 5054.96,4126.05 5047,4091.5C 5030.93,4012.29 5024.93,3932.29 5029,3851.5C 5035.11,3755.74 5047.11,3660.74 5065,3566.5C 5072.95,3525.07 5081.29,3483.74 5090,3442.5C 5114.68,3335.77 5139.35,3229.1 5164,3122.5C 5166.7,3112.13 5173.2,3105.3 5183.5,3102C 5199.2,3098.61 5214.87,3098.94 5230.5,3103C 5282.74,3117.85 5326.57,3145.69 5362,3186.5C 5371.59,3198.69 5378.26,3212.35 5382,3227.5C 5382.67,3232.83 5382.67,3238.17 5382,3243.5C 5380,3254.16 5378,3264.83 5376,3275.5C 5350.36,3378.06 5325.03,3480.72 5300,3583.5C 5287.47,3636.83 5276.47,3690.5 5267,3744.5C 5260.58,3778.89 5257.58,3813.55 5258,3848.5C 5258.22,3856.98 5260.22,3864.98 5264,3872.5C 5266.41,3876.04 5269.74,3877.7 5274,3877.5C 5286.41,3875.54 5297.58,3870.71 5307.5,3863C 5332.14,3842.7 5353.64,3819.53 5372,3793.5C 5396.97,3758.57 5418.64,3721.57 5437,3682.5C 5456.65,3551.56 5479.65,3421.23 5506,3291.5C 5518.92,3229.31 5532.09,3167.14 5545.5,3105C 5539.27,3088.35 5545.27,3079.85 5563.5,3079.5C 5576.43,3080.6 5589.1,3083.1 5601.5,3087C 5653.77,3105.79 5701.11,3132.79 5743.5,3168C 5752.43,3175.42 5758.77,3184.59 5762.5,3195.5C 5752.55,3243.63 5744.05,3291.96 5737,3340.5C 5800.48,3259.61 5866.82,3180.94 5936,3104.5C 5957.63,3081.54 5980.46,3060.04 6004.5,3040C 6012.41,3033.77 6021.08,3028.77 6030.5,3025C 6051.84,3023.17 6072.17,3026.83 6091.5,3036C 6135.86,3055.93 6171.03,3086.43 6197,3127.5C 6205.11,3140.51 6209.61,3154.67 6210.5,3170C 6210.14,3178.21 6209.3,3186.38 6208,3194.5C 6186.59,3292.87 6164.93,3391.2 6143,3489.5C 6127.44,3560.2 6115.77,3631.53 6108,3703.5C 6107.33,3721.5 6107.33,3739.5 6108,3757.5C 6108.81,3765.28 6111.48,3772.28 6116,3778.5C 6119.49,3782.05 6123.66,3783.21 6128.5,3782C 6137.48,3777.04 6145.31,3770.54 6152,3762.5C 6161.45,3750.38 6170.11,3737.72 6178,3724.5C 6204.81,3677.55 6228.47,3628.88 6249,3578.5C 6256.5,3455.49 6274.84,3334.15 6304,3214.5C 6320.64,3146.23 6344.31,3080.56 6375,3017.5C 6394.69,2977.32 6420.85,2941.82 6453.5,2911C 6498.2,2873.35 6549.54,2860.35 6607.5,2872C 6660.86,2881.59 6705.69,2906.43 6742,2946.5C 6752.76,2958.59 6762.76,2971.26 6772,2984.5C 6780.6,2998.03 6788.93,3011.7 6797,3025.5C 6837.24,3015.87 6877.41,3016.37 6917.5,3027C 6943.3,3033.47 6964.8,3046.64 6982,3066.5C 6997.62,3089.5 7001.62,3114.5 6994,3141.5C 6985.78,3165.7 6979.12,3190.37 6974,3215.5C 6935.24,3405.06 6903.07,3595.73 6877.5,3787.5 Z"/></g>
<g><path style="opacity:1" fill="#221e1e" d="M 3365.5,2876.5 C 3434.3,2875.46 3476.8,2908.46 3493,2975.5C 3498.89,3031.55 3485.22,3082.21 3452,3127.5C 3430.33,3156.52 3402.17,3176.02 3367.5,3186C 3324.36,3196.6 3287.86,3185.77 3258,3153.5C 3237.47,3125.91 3227.3,3094.74 3227.5,3060C 3228.97,3001.41 3250.63,2951.74 3292.5,2911C 3313.58,2892.46 3337.91,2880.96 3365.5,2876.5 Z"/></g>
<g><path style="opacity:1" fill="#221e1e" d="M 1892.5,2898.5 C 1947.92,2897.95 2001.25,2908.12 2052.5,2929C 2149.25,2967.77 2230.75,3027.27 2297,3107.5C 2322.82,3140.12 2342.15,3176.45 2355,3216.5C 2361.54,3245.11 2365.54,3274.11 2367,3303.5C 2379.73,3574.5 2346.4,3839.5 2267,4098.5C 2238.52,4189.13 2201.52,4276.13 2156,4359.5C 2119,4425.58 2073.17,4485.08 2018.5,4538C 1972.65,4580.27 1919.98,4611.27 1860.5,4631C 1830.18,4640.19 1799.18,4644.52 1767.5,4644C 1742.25,4640.47 1718.92,4631.81 1697.5,4618C 1683.48,4608.98 1670.31,4598.81 1658,4587.5C 1638.25,4617.58 1616.59,4646.25 1593,4673.5C 1579.08,4688.68 1563.58,4701.85 1546.5,4713C 1504.08,4729.72 1468.25,4720.55 1439,4685.5C 1424.87,4665.58 1414.21,4643.91 1407,4620.5C 1389.38,4556.92 1383.71,4492.25 1390,4426.5C 1394.19,4383.67 1399.52,4341 1406,4298.5C 1415.81,4241.65 1426.47,4184.99 1438,4128.5C 1459.14,4029.61 1479.81,3930.61 1500,3831.5C 1516.35,3750.08 1529.01,3668.08 1538,3585.5C 1544.01,3535.34 1546.34,3485 1545,3434.5C 1543.61,3427.34 1541.61,3420.34 1539,3413.5C 1531.16,3399.14 1522.82,3385.14 1514,3371.5C 1510.53,3358.89 1514.69,3349.39 1526.5,3343C 1582.52,3337.76 1636.52,3345.76 1688.5,3367C 1720.09,3379.92 1747.25,3399.09 1770,3424.5C 1794.56,3453.4 1804.56,3486.74 1800,3524.5C 1798.19,3538.53 1796.19,3552.53 1794,3566.5C 1783.96,3617.05 1772.96,3667.38 1761,3717.5C 1726.48,3851.09 1695.15,3985.42 1667,4120.5C 1655.95,4176.78 1647.29,4233.45 1641,4290.5C 1637.43,4324.11 1636.76,4357.78 1639,4391.5C 1639.82,4402.89 1641.65,4414.05 1644.5,4425C 1668.19,4437.37 1691.85,4449.7 1715.5,4462C 1733.09,4470.52 1751.59,4475.69 1771,4477.5C 1792.46,4476.19 1812.62,4470.36 1831.5,4460C 1856.38,4444.8 1877.88,4425.63 1896,4402.5C 1925.79,4362.94 1950.45,4320.28 1970,4274.5C 2004.76,4190.54 2032.1,4104.21 2052,4015.5C 2099.49,3804.18 2120.82,3590.18 2116,3373.5C 2114.22,3328.79 2109.22,3284.46 2101,3240.5C 2095.82,3214.4 2085.82,3190.4 2071,3168.5C 2054.41,3149.38 2033.41,3140.71 2008,3142.5C 1894.67,3152.52 1784.17,3175.69 1676.5,3212C 1576.25,3245.13 1479.59,3286.46 1386.5,3336C 1357.13,3352.34 1329.13,3370.68 1302.5,3391C 1291.68,3399.5 1282.85,3409.66 1276,3421.5C 1273.37,3442.07 1280.87,3457.91 1298.5,3469C 1303.38,3471.61 1308.38,3473.94 1313.5,3476C 1326.18,3479.67 1338.85,3483.34 1351.5,3487C 1356.39,3488.69 1359.89,3491.85 1362,3496.5C 1360.72,3520.91 1358.38,3545.24 1355,3569.5C 1347.43,3588.08 1344.26,3607.41 1345.5,3627.5C 1345.47,3651.32 1347.3,3674.99 1351,3698.5C 1357.19,3714.25 1361.02,3730.59 1362.5,3747.5C 1362.7,3759.08 1358.7,3768.92 1350.5,3777C 1346.63,3778.52 1342.63,3778.85 1338.5,3778C 1330.18,3771.88 1325.02,3763.71 1323,3753.5C 1320.93,3736.47 1321.26,3719.47 1324,3702.5C 1324.66,3677.74 1323.32,3653.07 1320,3628.5C 1318.56,3616.94 1315.72,3605.77 1311.5,3595C 1308.28,3593.22 1304.95,3591.72 1301.5,3590.5C 1300.06,3590.72 1298.73,3591.22 1297.5,3592C 1285.56,3602.39 1279.39,3615.56 1279,3631.5C 1278.75,3670.94 1280.75,3710.27 1285,3749.5C 1289.01,3774.22 1293.35,3798.89 1298,3823.5C 1299.94,3835.84 1299.94,3848.17 1298,3860.5C 1296.11,3869.14 1291.61,3875.97 1284.5,3881C 1277.14,3882.95 1270.97,3881.12 1266,3875.5C 1257.41,3863.27 1253.08,3849.61 1253,3834.5C 1255.21,3771.25 1252.21,3708.25 1244,3645.5C 1242.41,3635.65 1240.08,3625.99 1237,3616.5C 1232.2,3615.14 1227.37,3613.64 1222.5,3612C 1219.53,3609.9 1217.7,3607.07 1217,3603.5C 1214.73,3577.12 1212.06,3550.79 1209,3524.5C 1192.84,3488.83 1172.18,3456.16 1147,3426.5C 1133.43,3411.69 1120.1,3396.69 1107,3381.5C 1087.71,3359.93 1075.05,3334.93 1069,3306.5C 1066.56,3285.03 1070.89,3265.03 1082,3246.5C 1093.56,3227.6 1107.39,3210.43 1123.5,3195C 1159.51,3163.16 1198.51,3135.49 1240.5,3112C 1316.58,3070.13 1395.58,3034.47 1477.5,3005C 1587.89,2963.98 1700.89,2932.31 1816.5,2910C 1841.95,2906.01 1867.29,2902.17 1892.5,2898.5 Z"/></g>
<g><path style="opacity:1" fill="#fefefe" d="M 6606.5,2995.5 C 6614.33,2995.94 6621.66,2998.11 6628.5,3002C 6647.96,3016.46 6665.13,3033.29 6680,3052.5C 6703.75,3083.66 6725.25,3116.33 6744.5,3150.5C 6726.69,3250.05 6709.52,3349.71 6693,3449.5C 6671.63,3513.38 6645.29,3575.05 6614,3634.5C 6604.66,3651 6593.5,3666.17 6580.5,3680C 6573.44,3686.53 6565.1,3690.36 6555.5,3691.5C 6551.89,3691.2 6548.55,3690.03 6545.5,3688C 6536.72,3679.55 6529.88,3669.71 6525,3658.5C 6510.76,3618.41 6502.09,3577.08 6499,3534.5C 6489.29,3381.12 6509.29,3231.79 6559,3086.5C 6567.67,3060.48 6578.67,3035.48 6592,3011.5C 6595.71,3005.02 6600.54,2999.69 6606.5,2995.5 Z"/></g>
<g><path style="opacity:1" fill="#221e1e" d="M 3302.5,5150.5 C 3302.48,5148.44 3302.15,5146.44 3301.5,5144.5C 3301.63,5142.35 3301.13,5140.35 3300,5138.5C 3299.51,5140.55 3299.68,5142.55 3300.5,5144.5C 3300.5,5158.17 3300.5,5171.83 3300.5,5185.5C 3300.78,5196.83 3298.28,5207.5 3293,5217.5C 3288.99,5222.17 3284.49,5222.67 3279.5,5219C 3274.68,5212.91 3271.18,5206.08 3269,5198.5C 3264.85,5180.66 3261.52,5162.66 3259,5144.5C 3256.34,5195.57 3258,5246.57 3264,5297.5C 3269.23,5321.26 3272.73,5345.26 3274.5,5369.5C 3274.63,5381.81 3272.79,5393.81 3269,5405.5C 3263.88,5418.3 3256.88,5419.63 3248,5409.5C 3240.87,5394.32 3236.87,5378.32 3236,5361.5C 3236.22,5331.5 3236.56,5301.5 3237,5271.5C 3235.52,5246.82 3233.86,5222.15 3232,5197.5C 3230.69,5181.68 3228.35,5166.01 3225,5150.5C 3223.39,5143.43 3219.89,5137.59 3214.5,5133C 3206.22,5132.4 3200.39,5128.24 3197,5120.5C 3190.46,5104.06 3186.3,5087.06 3184.5,5069.5C 3181.17,5069.5 3177.83,5069.5 3174.5,5069.5C 3171.5,5069.5 3168.5,5069.5 3165.5,5069.5C 3165.5,5070.5 3165.5,5071.5 3165.5,5072.5C 3164.56,5084.71 3162.39,5096.71 3159,5108.5C 3153.94,5168.58 3154.94,5228.58 3162,5288.5C 3166.99,5315.11 3171.65,5341.78 3176,5368.5C 3178.3,5385.23 3177.96,5401.89 3175,5418.5C 3173.14,5427.38 3169.31,5435.22 3163.5,5442C 3157.1,5444.89 3151.94,5443.39 3148,5437.5C 3141.3,5426.73 3136.96,5415.06 3135,5402.5C 3133.16,5389.73 3132.33,5376.9 3132.5,5364C 3133.11,5340.65 3134.11,5317.32 3135.5,5294C 3134.02,5254.77 3131.52,5215.6 3128,5176.5C 3126.08,5159.71 3123.41,5143.05 3120,5126.5C 3117.43,5122.3 3113.93,5119.13 3109.5,5117C 3107.19,5116.24 3105.19,5116.74 3103.5,5118.5C 3094.09,5130.99 3088.25,5144.99 3086,5160.5C 3083.17,5275.81 3090.5,5390.48 3108,5504.5C 3111.14,5529.41 3112.14,5554.41 3111,5579.5C 3109.4,5590.92 3106.4,5601.92 3102,5612.5C 3095.86,5621.98 3088.52,5622.98 3080,5615.5C 3070.18,5599.26 3064.52,5581.59 3063,5562.5C 3061.78,5549.18 3060.78,5535.85 3060,5522.5C 3060.82,5426.99 3057.15,5331.66 3049,5236.5C 3046.9,5213.38 3043.9,5190.38 3040,5167.5C 3039.6,5163.98 3038.6,5160.65 3037,5157.5C 3028.52,5157.08 3022.19,5153.08 3018,5145.5C 3014.73,5139.29 3011.73,5132.95 3009,5126.5C 3003.79,5109.53 2997.79,5092.86 2991,5076.5C 2990.67,5076.17 2990.33,5075.83 2990,5075.5C 2983.78,5088.51 2979.78,5102.18 2978,5116.5C 2976.75,5152.93 2978.09,5189.27 2982,5225.5C 2985.43,5241.42 2988.43,5257.42 2991,5273.5C 2992.09,5287.27 2991.42,5300.93 2989,5314.5C 2987.29,5320.34 2984.45,5325.51 2980.5,5330C 2974.44,5332.73 2969.61,5331.23 2966,5325.5C 2958.74,5312.14 2954.74,5297.81 2954,5282.5C 2953.79,5263.46 2954.62,5244.46 2956.5,5225.5C 2955.95,5203.77 2954.45,5182.1 2952,5160.5C 2951.07,5153.26 2949.4,5146.26 2947,5139.5C 2944.6,5141.31 2942.93,5143.64 2942,5146.5C 2936.77,5171.57 2935.11,5196.9 2937,5222.5C 2938.52,5292.36 2945.19,5361.69 2957,5430.5C 2961.05,5457.14 2961.39,5483.81 2958,5510.5C 2956.06,5516.33 2953.72,5521.99 2951,5527.5C 2946.39,5535.83 2939.89,5537.66 2931.5,5533C 2925.35,5526.55 2920.85,5519.05 2918,5510.5C 2915.04,5501.06 2913.04,5491.39 2912,5481.5C 2909.17,5447.71 2908.67,5413.88 2910.5,5380C 2909.22,5317.34 2905.39,5254.84 2899,5192.5C 2897.85,5182.74 2896.18,5173.08 2894,5163.5C 2891.6,5157.87 2888.1,5153.04 2883.5,5149C 2876.1,5148.14 2868.76,5146.8 2861.5,5145C 2856.11,5142.94 2851.95,5139.44 2849,5134.5C 2841.98,5121.12 2836.31,5107.12 2832,5092.5C 2828.1,5074.25 2823.27,5056.25 2817.5,5038.5C 2813.74,5036.59 2809.91,5035.92 2806,5036.5C 2803.08,5048.14 2801.91,5059.97 2802.5,5072C 2802.67,5118.22 2806.84,5164.05 2815,5209.5C 2815.67,5223.17 2815.67,5236.83 2815,5250.5C 2813.46,5259.82 2809.62,5267.99 2803.5,5275C 2800.83,5275.67 2798.17,5275.67 2795.5,5275C 2786.51,5266.06 2781.34,5255.22 2780,5242.5C 2779.42,5237.49 2778.75,5232.49 2778,5227.5C 2778.04,5188.47 2777.04,5149.47 2775,5110.5C 2772.81,5094.09 2770.15,5077.76 2767,5061.5C 2765.84,5056.17 2763.84,5051.17 2761,5046.5C 2758.96,5044.96 2756.79,5043.63 2754.5,5042.5C 2750.1,5033.46 2745.6,5024.46 2741,5015.5C 2542.63,4945.45 2383.96,4823.78 2265,4650.5C 2252.32,4631.47 2240.99,4611.8 2231,4591.5C 2373.78,4777.72 2561.62,4889.89 2794.5,4928C 2905.51,4944.63 3016.85,4946.97 3128.5,4935C 3220.33,4925.21 3310.99,4909.04 3400.5,4886.5C 3402.47,4878.57 3403.14,4870.23 3402.5,4861.5C 3406.36,4685.85 3415.86,4510.52 3431,4335.5C 3435.36,4290.04 3440.36,4244.7 3446,4199.5C 3410.53,4256.78 3371.87,4311.78 3330,4364.5C 3309.88,4388.95 3288.05,4411.79 3264.5,4433C 3252.78,4443.05 3239.78,4451.05 3225.5,4457C 3201.31,4463.3 3179.31,4458.96 3159.5,4444C 3143.65,4431.15 3131.15,4415.65 3122,4397.5C 3100.91,4353.16 3087.24,4306.5 3081,4257.5C 3078.54,4239.89 3076.7,4222.23 3075.5,4204.5C 3075.66,4201.48 3075.5,4198.48 3075,4195.5C 3074.28,4196.04 3073.78,4196.71 3073.5,4197.5C 3032.27,4276.99 2984.77,4352.32 2931,4423.5C 2911.75,4448.75 2889.25,4470.58 2863.5,4489C 2840.63,4502.86 2816.97,4504.19 2792.5,4493C 2771.27,4482.11 2754.1,4466.61 2741,4446.5C 2712.03,4399.04 2696.36,4347.37 2694,4291.5C 2693.08,4265.39 2694.41,4239.39 2698,4213.5C 2700.42,4197.17 2702.75,4180.84 2705,4164.5C 2719.11,4089.53 2733.11,4014.53 2747,3939.5C 2761.19,3862.42 2770.86,3784.75 2776,3706.5C 2776.67,3676.5 2776.67,3646.5 2776,3616.5C 2776.62,3584.79 2768.29,3555.79 2751,3529.5C 2727.5,3496.66 2698.83,3469.33 2665,3447.5C 2649.44,3540.4 2629.77,3632.4 2606,3723.5C 2580.59,3820.8 2551.59,3917.14 2519,4012.5C 2517.13,4033.48 2515.46,4054.48 2514,4075.5C 2510.37,4089.37 2507.37,4103.37 2505,4117.5C 2504,4145.54 2504.67,4173.54 2507,4201.5C 2510.07,4218.97 2513.74,4236.3 2518,4253.5C 2519.67,4266.14 2517.67,4278.14 2512,4289.5C 2505.74,4296.11 2499.41,4296.11 2493,4289.5C 2485.59,4277.61 2482.42,4264.61 2483.5,4250.5C 2484.64,4235.34 2485.64,4220.17 2486.5,4205C 2486.12,4183.08 2484.62,4161.25 2482,4139.5C 2480.91,4129.88 2478.74,4120.54 2475.5,4111.5C 2469.18,4105.6 2463.68,4106.27 2459,4113.5C 2454.95,4118.94 2451.95,4124.94 2450,4131.5C 2448.22,4144.43 2447.39,4157.43 2447.5,4170.5C 2448.71,4229.97 2454.55,4288.97 2465,4347.5C 2466.62,4360.84 2465.28,4373.84 2461,4386.5C 2454.56,4400.63 2446.23,4401.96 2436,4390.5C 2431.4,4382.02 2428.4,4373.02 2427,4363.5C 2426.1,4352.18 2425.6,4340.85 2425.5,4329.5C 2427.03,4273 2424.53,4216.66 2418,4160.5C 2416.74,4150.98 2414.74,4141.65 2412,4132.5C 2406.72,4131.85 2402.05,4129.85 2398,4126.5C 2397.33,4125.17 2396.67,4123.83 2396,4122.5C 2393.3,4091.52 2390.8,4060.52 2388.5,4029.5C 2388.68,4026.12 2389.18,4022.78 2390,4019.5C 2402.79,3990.14 2413.79,3960.14 2423,3929.5C 2498.05,3673.75 2514.88,3414.08 2473.5,3150.5C 2517.66,3149.45 2559.99,3157.62 2600.5,3175C 2651.86,3199.23 2677.86,3239.73 2678.5,3296.5C 2677.88,3302.6 2678.55,3308.26 2680.5,3313.5C 2761.31,3325.16 2838.31,3348.99 2911.5,3385C 2941.09,3400.25 2967.59,3419.75 2991,3443.5C 3011.39,3464.61 3024.72,3489.61 3031,3518.5C 3033.01,3538.86 3032.68,3559.19 3030,3579.5C 3024.76,3617.29 3018.76,3654.95 3012,3692.5C 2987.76,3812.71 2964.42,3933.05 2942,4053.5C 2938.55,4074.89 2936.05,4096.39 2934.5,4118C 2934.62,4123.87 2935.12,4129.7 2936,4135.5C 2936.87,4138.2 2938.7,4139.54 2941.5,4139.5C 2944.7,4138.9 2947.7,4137.73 2950.5,4136C 2963.86,4124.64 2975.03,4111.48 2984,4096.5C 3009.25,4054 3031.92,4010 3052,3964.5C 3068.14,3928.24 3083.14,3891.57 3097,3854.5C 3111.23,3770.35 3127.9,3686.68 3147,3603.5C 3167.92,3514.88 3188.59,3426.21 3209,3337.5C 3214.45,3327.35 3222.95,3321.51 3234.5,3320C 3245.2,3319.22 3255.87,3319.56 3266.5,3321C 3316.79,3333.22 3359.96,3357.72 3396,3394.5C 3406.63,3406.14 3415.29,3419.14 3422,3433.5C 3426.02,3443.49 3427.35,3453.82 3426,3464.5C 3423.21,3479.2 3420.21,3493.87 3417,3508.5C 3392.36,3605.06 3368.36,3701.73 3345,3798.5C 3330.75,3859.43 3318.41,3920.76 3308,3982.5C 3302.53,4014.66 3300.86,4046.99 3303,4079.5C 3304.27,4083.99 3305.94,4088.32 3308,4092.5C 3311.44,4097.08 3315.94,4098.58 3321.5,4097C 3327.38,4095.59 3333.05,4093.59 3338.5,4091C 3347.36,4085.74 3355.7,4079.74 3363.5,4073C 3401.54,4035.06 3433.37,3992.56 3459,3945.5C 3473.02,3919.8 3485.69,3893.46 3497,3866.5C 3525.86,3698.03 3553.19,3529.37 3579,3360.5C 3582.87,3353.81 3588.7,3349.97 3596.5,3349C 3610.29,3348.24 3623.95,3349.24 3637.5,3352C 3686.27,3363.96 3728.44,3387.46 3764,3422.5C 3775.4,3435.26 3784.4,3449.59 3791,3465.5C 3814.53,3413.77 3840.2,3363.11 3868,3313.5C 3889.04,3276.74 3913.04,3242.08 3940,3209.5C 3957.53,3188.63 3978.03,3171.46 4001.5,3158C 4023.82,3147.08 4047.15,3144.41 4071.5,3150C 4094.87,3156.1 4114.03,3168.6 4129,3187.5C 4144.31,3207.44 4155.97,3229.44 4164,3253.5C 4179.52,3302.26 4189.19,3352.26 4193,3403.5C 4200.53,3605.9 4177.2,3804.57 4123,3999.5C 4103.62,4069.31 4076.62,4135.98 4042,4199.5C 4025.98,4226.18 4007.65,4251.18 3987,4274.5C 3935.04,4328.52 3872.54,4345.68 3799.5,4326C 3768.33,4316.26 3740.67,4300.59 3716.5,4279C 3703.6,4266.77 3691.44,4253.94 3680,4240.5C 3672.66,4318.68 3667.66,4397.01 3665,4475.5C 3661.94,4585.14 3660.77,4694.81 3661.5,4804.5C 3754.24,4771.08 3845.24,4733.25 3934.5,4691C 4018.8,4651.35 4101.46,4608.85 4182.5,4563.5C 4185.34,4502.71 4189.84,4442.04 4196,4381.5C 4215.32,4210.6 4238.65,4040.27 4266,3870.5C 4298.58,3670.1 4331.25,3469.77 4364,3269.5C 4367.84,3265 4372.67,3262.16 4378.5,3261C 4405.47,3260.26 4431.47,3264.93 4456.5,3275C 4492.27,3288.97 4523.43,3309.8 4550,3337.5C 4560.39,3349.41 4568.56,3362.74 4574.5,3377.5C 4598.22,3325.39 4624.06,3274.39 4652,3224.5C 4671.86,3190.1 4694.2,3157.43 4719,3126.5C 4736.44,3105.38 4756.61,3087.55 4779.5,3073C 4810.48,3056.52 4842.14,3055.19 4874.5,3069C 4892.73,3078.23 4907.57,3091.39 4919,3108.5C 4941.66,3144.78 4956.66,3184.12 4964,3226.5C 4977.37,3298.9 4982.04,3371.9 4978,3445.5C 4971.86,3607.64 4946.86,3766.64 4903,3922.5C 4884.81,3983.75 4861.14,4042.75 4832,4099.5C 4815.39,4129.1 4796.06,4156.77 4774,4182.5C 4716.36,4243.78 4647.53,4260.62 4567.5,4233C 4541.57,4222.37 4518.24,4207.71 4497.5,4189C 4485.59,4177.59 4474.26,4165.76 4463.5,4153.5C 4454.95,4234.29 4448.95,4315.29 4445.5,4396.5C 4546.08,4386.85 4631.58,4417.85 4702,4489.5C 4768.05,4563.4 4794.05,4649.73 4780,4748.5C 4760.24,4852.56 4703.07,4928.06 4608.5,4975C 4506.09,5018.8 4408.09,5010.8 4314.5,4951C 4280.67,4926.5 4251.5,4897.33 4227,4863.5C 4220.57,4852.97 4214.9,4841.97 4210,4830.5C 4195.5,4795.15 4186,4758.48 4181.5,4720.5C 4017.41,4817.21 3845.74,4898.38 3666.5,4964C 3665.71,5039.05 3677.21,5112.21 3701,5183.5C 3705.97,5196.76 3711.47,5209.76 3717.5,5222.5C 3692.29,5258.95 3658.96,5285.11 3617.5,5301C 3587.34,5313.16 3556.01,5318.83 3523.5,5318C 3493.22,5313.03 3469.05,5298.2 3451,5273.5C 3429.6,5240.96 3416.27,5205.29 3411,5166.5C 3404.7,5124.42 3401.53,5082.08 3401.5,5039.5C 3398.14,5039.62 3394.81,5039.95 3391.5,5040.5C 3390.56,5091.61 3392.39,5142.61 3397,5193.5C 3400.88,5215.77 3404.21,5238.11 3407,5260.5C 3408.78,5276.55 3407.11,5292.22 3402,5307.5C 3400.55,5310.91 3398.71,5314.08 3396.5,5317C 3392.83,5319 3389.17,5319 3385.5,5317C 3377.35,5306.24 3372.52,5294.07 3371,5280.5C 3369.41,5268.22 3368.58,5255.89 3368.5,5243.5C 3371.18,5186.67 3369.02,5130 3362,5073.5C 3361.25,5067.4 3360.08,5061.4 3358.5,5055.5C 3355.86,5056.98 3353.69,5058.98 3352,5061.5C 3350.08,5067.08 3348.42,5072.75 3347,5078.5C 3341.19,5129.68 3339.19,5181.02 3341,5232.5C 3342.95,5287.95 3346.62,5343.29 3352,5398.5C 3357.51,5426.74 3362.51,5455.07 3367,5483.5C 3371.29,5510.19 3371.29,5536.86 3367,5563.5C 3365.16,5572.35 3361.32,5580.19 3355.5,5587C 3349.1,5589.81 3343.6,5588.65 3339,5583.5C 3330.52,5570.05 3325.18,5555.39 3323,5539.5C 3318.68,5500.21 3318.34,5460.88 3322,5421.5C 3321.91,5358.04 3318.91,5294.71 3313,5231.5C 3310.48,5204.36 3306.98,5177.36 3302.5,5150.5 Z"/></g>
<g><path style="opacity:1" fill="#959393" d="M 2678.5,3296.5 C 2679.21,3302.07 2679.87,3307.73 2680.5,3313.5C 2678.55,3308.26 2677.88,3302.6 2678.5,3296.5 Z"/></g>
<g><path style="opacity:1" fill="#fefefe" d="M 4718.5,3370.5 C 4727.96,3368.65 4734.13,3372.31 4737,3381.5C 4738.54,3385.77 4739.87,3390.11 4741,3394.5C 4752.83,3552.7 4731.16,3706.03 4676,3854.5C 4662.85,3888.97 4646.85,3921.97 4628,3953.5C 4615.74,3972.77 4601.57,3990.61 4585.5,4007C 4572.27,4019.78 4556.6,4028.12 4538.5,4032C 4521.97,4034.66 4508.47,4029.5 4498,4016.5C 4491.41,4007.82 4486.24,3998.32 4482.5,3988C 4496.63,3884.04 4515.13,3780.87 4538,3678.5C 4572.19,3602.79 4609.52,3528.79 4650,3456.5C 4661.25,3437.65 4673.25,3419.32 4686,3401.5C 4695.11,3389.22 4705.94,3378.89 4718.5,3370.5 Z"/></g>
<g><path style="opacity:1" fill="#fefefe" d="M 3935.5,3458.5 C 3939.64,3458.15 3943.64,3458.65 3947.5,3460C 3952.12,3465.75 3955.29,3472.25 3957,3479.5C 3970.47,3645.89 3946.47,3806.56 3885,3961.5C 3871.11,3995.28 3854.11,4027.28 3834,4057.5C 3820.53,4076.97 3804.36,4093.81 3785.5,4108C 3743.57,4132.19 3714.9,4121.36 3699.5,4075.5C 3713.59,3971.38 3732.09,3868.04 3755,3765.5C 3787.78,3692.95 3823.44,3621.95 3862,3552.5C 3875.15,3529.69 3889.49,3507.69 3905,3486.5C 3913.49,3475.17 3923.65,3465.84 3935.5,3458.5 Z"/></g>
<g><path style="opacity:1" fill="#a19f9f" d="M 6877.5,3787.5 C 6877.21,3789.74 6877.54,3791.74 6878.5,3793.5C 6878.01,3794.47 6877.51,3795.47 6877,3796.5C 6876.2,3793.3 6876.36,3790.3 6877.5,3787.5 Z"/></g>
<g><path style="opacity:1" fill="#fdfdfd" d="M 6620.5,4173.5 C 6615.12,4237.71 6600.96,4300.04 6578,4360.5C 6568.82,4383.2 6556.82,4404.2 6542,4423.5C 6536.35,4429.49 6529.85,4434.32 6522.5,4438C 6490.25,4441.48 6469.08,4427.98 6459,4397.5C 6456.31,4384.11 6457.65,4371.11 6463,4358.5C 6474.41,4330.34 6489.41,4304.34 6508,4280.5C 6539.93,4238.73 6577.43,4203.06 6620.5,4173.5 Z"/></g>
<g><path style="opacity:1" fill="#8e8c8c" d="M 3075.5,4204.5 C 3074.83,4202.17 3074.17,4199.83 3073.5,4197.5C 3073.78,4196.71 3074.28,4196.04 3075,4195.5C 3075.5,4198.48 3075.66,4201.48 3075.5,4204.5 Z"/></g>
<g><path style="opacity:1" fill="#221e1e" d="M 5283.5,4581.5 C 5284.4,4580.79 5284.74,4579.79 5284.5,4578.5C 5281.29,4578.19 5278.29,4578.52 5275.5,4579.5C 5264.89,4579.85 5254.56,4581.69 5244.5,4585C 5221.28,4592.91 5199.95,4604.24 5180.5,4619C 5145.63,4646.87 5114.46,4678.37 5087,4713.5C 5041.22,4773.69 5002.55,4838.36 4971,4907.5C 4960.92,4928.91 4953.75,4951.24 4949.5,4974.5C 4949.35,4985.55 4953.35,4994.72 4961.5,5002C 4967.71,5005.96 4974.38,5008.96 4981.5,5011C 4990.5,5012.89 4999.5,5014.89 5008.5,5017C 5011.76,5018.21 5014.59,5020.04 5017,5022.5C 5017.52,5024.29 5017.19,5025.96 5016,5027.5C 5008.54,5033.48 5000.38,5038.31 4991.5,5042C 4970.74,5051.12 4949.08,5056.62 4926.5,5058.5C 4918.97,5059.6 4912.81,5057.27 4908,5051.5C 4898.81,5035.12 4888.15,5019.79 4876,5005.5C 4859,4987.17 4841.33,4969.5 4823,4952.5C 4799.03,4927.94 4787.2,4898.44 4787.5,4864C 4788.6,4837.8 4794.77,4812.96 4806,4789.5C 4822.36,4756.09 4842.69,4725.42 4867,4697.5C 4955.02,4600.05 5061.52,4530.55 5186.5,4489C 5212.41,4481.61 5238.74,4476.27 5265.5,4473C 5294.6,4469.48 5323.27,4471.48 5351.5,4479C 5394.16,4494.34 5420.66,4524.17 5431,4568.5C 5437.21,4602.32 5438.21,4636.32 5434,4670.5C 5428.37,4716.33 5420.03,4761.66 5409,4806.5C 5400.73,4839.98 5392.06,4873.31 5383,4906.5C 5355.25,5001.41 5326.92,5096.08 5298,5190.5C 5278.85,5253.89 5261.85,5317.89 5247,5382.5C 5244.5,5394.8 5242.5,5407.14 5241,5419.5C 5302.87,5361.65 5358.2,5298.31 5407,5229.5C 5469.3,5142.27 5521.3,5048.94 5563,4949.5C 5567.15,4937.38 5571.48,4925.38 5576,4913.5C 5594.78,4843.03 5609.45,4771.69 5620,4699.5C 5623.1,4673.25 5624.43,4646.92 5624,4620.5C 5620.84,4605.17 5615.17,4590.84 5607,4577.5C 5605.17,4569.64 5607.67,4563.47 5614.5,4559C 5631.32,4557.81 5647.66,4560.14 5663.5,4566C 5713.77,4585.4 5755.27,4616.56 5788,4659.5C 5800.4,4675.63 5809.06,4693.63 5814,4713.5C 5814.92,4754.27 5813.25,4794.93 5809,4835.5C 5805.71,4863.22 5802.04,4890.89 5798,4918.5C 5783.94,4994.62 5771.28,5070.96 5760,5147.5C 5752.21,5207.26 5748.88,5267.26 5750,5327.5C 5750.51,5367.43 5755.51,5406.77 5765,5445.5C 5768.43,5456.37 5772.43,5467.03 5777,5477.5C 5793.37,5465.46 5807.37,5451.13 5819,5434.5C 5851.33,5386.76 5878.66,5336.09 5901,5282.5C 5971.04,5115.69 6017.71,4942.36 6041,4762.5C 6047.01,4709.99 6049.01,4657.32 6047,4604.5C 6045.74,4570.92 6040.74,4537.92 6032,4505.5C 6028.38,4492.89 6021.88,4482.06 6012.5,4473C 6006.19,4469.29 5999.36,4467.46 5992,4467.5C 5992.09,4464.3 5993.09,4461.3 5995,4458.5C 6003.18,4449.54 6013.34,4444.38 6025.5,4443C 6094.53,4445.67 6154.86,4469.67 6206.5,4515C 6228.33,4535.48 6242.83,4560.32 6250,4589.5C 6251.55,4605.46 6251.89,4621.46 6251,4637.5C 6247.25,4676.27 6240.91,4714.6 6232,4752.5C 6217.35,4812.75 6200.69,4872.42 6182,4931.5C 6125.49,5105.7 6056.49,5274.7 5975,5438.5C 5951.2,5486.13 5923.87,5531.46 5893,5574.5C 5864.4,5611.78 5829.24,5640.95 5787.5,5662C 5743.46,5683.12 5701.79,5679.45 5662.5,5651C 5630.34,5624.5 5606.17,5592 5590,5553.5C 5565.95,5494.6 5552.95,5433.27 5551,5369.5C 5549.59,5331.07 5550.93,5292.74 5555,5254.5C 5558.42,5228.73 5562.09,5203.07 5566,5177.5C 5550.8,5204.69 5534.8,5231.36 5518,5257.5C 5450.19,5360.33 5375.86,5458.33 5295,5551.5C 5267.1,5582.73 5237.27,5611.9 5205.5,5639C 5188.37,5652.9 5169.7,5664.23 5149.5,5673C 5131.88,5678.21 5115.54,5675.54 5100.5,5665C 5076.16,5646.49 5056.32,5623.99 5041,5597.5C 5025.57,5571.65 5014.91,5543.98 5009,5514.5C 5008.33,5508.17 5008.33,5501.83 5009,5495.5C 5023.45,5444.56 5039.12,5393.9 5056,5343.5C 5088.67,5248.83 5121.33,5154.17 5154,5059.5C 5192.37,4947.34 5226.7,4834.01 5257,4719.5C 5268.09,4673.89 5276.92,4627.89 5283.5,4581.5 Z"/></g>
<g><path style="opacity:1" fill="#fefefe" d="M 4559.5,4505.5 C 4591.02,4502.56 4621.36,4507.06 4650.5,4519C 4693.41,4541.94 4719.57,4577.44 4729,4625.5C 4739.19,4691.6 4715.69,4741.43 4658.5,4775C 4628.64,4791.26 4596.8,4801.09 4563,4804.5C 4544.71,4803.88 4529.71,4796.55 4518,4782.5C 4508.81,4770.8 4501.15,4758.13 4495,4744.5C 4480.36,4709.59 4466.7,4674.26 4454,4638.5C 4434.5,4568.34 4460.33,4525.5 4531.5,4510C 4540.95,4508.43 4550.28,4506.93 4559.5,4505.5 Z"/></g>
<g><path style="opacity:1" fill="#221e1e" d="M 6650.5,5492.5 C 6650.81,5490.08 6650.47,5487.74 6649.5,5485.5C 6648.89,5485.62 6648.56,5485.96 6648.5,5486.5C 6607.53,5541.31 6558.2,5586.81 6500.5,5623C 6434.74,5662.06 6365.41,5669.72 6292.5,5646C 6239.92,5627.09 6203.42,5591.59 6183,5539.5C 6166.05,5493.04 6157.89,5445.04 6158.5,5395.5C 6158.28,5378.78 6159.12,5362.11 6161,5345.5C 6174.8,5229.64 6201.47,5116.97 6241,5007.5C 6258.84,4957.82 6282.51,4911.16 6312,4867.5C 6329.08,4842.51 6350.24,4821.68 6375.5,4805C 6404.29,4788.2 6434.96,4783.53 6467.5,4791C 6536.38,4805.67 6593.21,4839.83 6638,4893.5C 6654.34,4914.85 6664.67,4938.85 6669,4965.5C 6670.02,4979.97 6669.02,4994.3 6666,5008.5C 6643.35,5090.14 6605.68,5163.81 6553,5229.5C 6536.27,5249.57 6517.1,5266.74 6495.5,5281C 6465.1,5297.97 6434.1,5298.97 6402.5,5284C 6384.63,5275.31 6368.8,5263.81 6355,5249.5C 6346.84,5305.36 6350.84,5360.36 6367,5414.5C 6374.36,5437.23 6385.36,5457.9 6400,5476.5C 6426.01,5503.97 6455.84,5508.81 6489.5,5491C 6508.85,5480.32 6526.52,5467.32 6542.5,5452C 6583.95,5409.57 6620.45,5363.4 6652,5313.5C 6666.84,5289.83 6681.17,5265.83 6695,5241.5C 6704.25,5210.41 6713.92,5179.41 6724,5148.5C 6752.91,5066.11 6780.41,4983.28 6806.5,4900C 6805.91,4898.12 6804.57,4897.12 6802.5,4897C 6787.3,4894.61 6773.3,4897.61 6760.5,4906C 6752.79,4912.71 6744.79,4919.05 6736.5,4925C 6734.5,4925.67 6732.5,4925.67 6730.5,4925C 6723.24,4921 6719.07,4914.83 6718,4906.5C 6714.8,4890.49 6716.8,4875.15 6724,4860.5C 6740,4828.66 6765.5,4809.66 6800.5,4803.5C 6811.88,4804.14 6822.88,4803.48 6833.5,4801.5C 6836.71,4787.32 6840.55,4773.32 6845,4759.5C 6857.98,4718.93 6870.64,4678.26 6883,4637.5C 6885.98,4626.25 6888.65,4614.91 6891,4603.5C 6892.06,4594.03 6891.39,4584.69 6889,4575.5C 6885.41,4564.99 6880.74,4554.99 6875,4545.5C 6872.65,4536.69 6875.48,4529.85 6883.5,4525C 6935.65,4524.94 6982.65,4540.27 7024.5,4571C 7047,4588.49 7061.83,4610.99 7069,4638.5C 7070.44,4645.11 7070.77,4651.78 7070,4658.5C 7053.35,4715.45 7035.69,4772.11 7017,4828.5C 7016.51,4830.13 7016.34,4831.8 7016.5,4833.5C 7035.48,4834.3 7054.48,4834.47 7073.5,4834C 7075.94,4836.65 7076.94,4839.82 7076.5,4843.5C 7073.65,4880.51 7054.31,4903.68 7018.5,4913C 7008.17,4914.7 6997.83,4914.86 6987.5,4913.5C 6943.66,5020.85 6902.5,5129.18 6864,5238.5C 6854.53,5267.52 6846.2,5296.85 6839,5326.5C 6834.43,5346.59 6832.43,5366.93 6833,5387.5C 6832.61,5394.66 6834.77,5400.83 6839.5,5406C 6842.93,5406.7 6846.26,5406.37 6849.5,5405C 6856.04,5401.78 6862.04,5397.78 6867.5,5393C 6890.52,5370.99 6911.68,5347.49 6931,5322.5C 6958.67,5287.65 6984.51,5251.49 7008.5,5214C 7012.62,5213.88 7016.28,5215.22 7019.5,5218C 7039.43,5234.03 7053.26,5254.2 7061,5278.5C 7061.67,5281.5 7061.67,5284.5 7061,5287.5C 7056.8,5298.23 7051.8,5308.56 7046,5318.5C 6988.77,5413.59 6922.77,5502.26 6848,5584.5C 6830.03,5603.15 6810.86,5620.32 6790.5,5636C 6777.88,5645.64 6763.88,5652.64 6748.5,5657C 6731.29,5659.1 6715.95,5654.76 6702.5,5644C 6686.87,5629.26 6675.37,5611.76 6668,5591.5C 6657.42,5559.36 6651.59,5526.36 6650.5,5492.5 Z"/></g>
<g><path style="opacity:1" fill="#6f6d6d" d="M 5275.5,4579.5 C 5278.29,4578.52 5281.29,4578.19 5284.5,4578.5C 5284.74,4579.79 5284.4,4580.79 5283.5,4581.5C 5281.36,4579.63 5278.7,4578.96 5275.5,4579.5 Z"/></g>
<g><path style="opacity:1" fill="#716f6f" d="M 6833.5,4801.5 C 6822.88,4803.48 6811.88,4804.14 6800.5,4803.5C 6811.4,4802.81 6822.4,4802.15 6833.5,4801.5 Z"/></g>
<g><path style="opacity:1" fill="#a2a0a0" d="M 3402.5,4861.5 C 3403.14,4870.23 3402.47,4878.57 3400.5,4886.5C 3401.14,4878.07 3401.81,4869.73 3402.5,4861.5 Z"/></g>
<g><path style="opacity:1" fill="#fefefe" d="M 6470.5,4883.5 C 6478.51,4883.17 6485.51,4885.67 6491.5,4891C 6504.41,4904.33 6515.24,4919.16 6524,4935.5C 6517.03,5005.73 6496.03,5071.4 6461,5132.5C 6451.12,5149.72 6438.96,5165.22 6424.5,5179C 6418.38,5184.23 6411.38,5186.9 6403.5,5187C 6390.74,5182.91 6380.91,5175.08 6374,5163.5C 6371.75,5159.99 6369.75,5156.33 6368,5152.5C 6382.35,5069.45 6408.68,4990.45 6447,4915.5C 6453.51,4903.83 6461.34,4893.16 6470.5,4883.5 Z"/></g>
<g><path style="opacity:1" fill="#929191" d="M 3174.5,5069.5 C 3171.37,5070.04 3168.37,5071.04 3165.5,5072.5C 3165.5,5071.5 3165.5,5070.5 3165.5,5069.5C 3168.5,5069.5 3171.5,5069.5 3174.5,5069.5 Z"/></g>
<g><path style="opacity:1" fill="#6b6969" d="M 3301.5,5144.5 C 3301.17,5144.5 3300.83,5144.5 3300.5,5144.5C 3299.68,5142.55 3299.51,5140.55 3300,5138.5C 3301.13,5140.35 3301.63,5142.35 3301.5,5144.5 Z"/></g>
<g><path style="opacity:1" fill="#aaa9a9" d="M 3300.5,5144.5 C 3300.83,5144.5 3301.17,5144.5 3301.5,5144.5C 3302.15,5146.44 3302.48,5148.44 3302.5,5150.5C 3301.83,5162.17 3301.17,5173.83 3300.5,5185.5C 3300.5,5171.83 3300.5,5158.17 3300.5,5144.5 Z"/></g>
<g><path style="opacity:1" fill="#a6a4a4" d="M 6648.5,5486.5 C 6648.56,5485.96 6648.89,5485.62 6649.5,5485.5C 6650.47,5487.74 6650.81,5490.08 6650.5,5492.5C 6649.83,5490.5 6649.17,5488.5 6648.5,5486.5 Z"/></g>
</svg>
